# xmcd
#
# Track frame offsets:
#  150
#  16075
#  29937
#  46650
#  62600
#  76862
#  90925
#  102812
#  120537
#  140950
#  154737
#  172250
#  184462
#  199612
#  216212
#  237125
#  255087
#  268312
#
# Disc length: 3888 seconds
#
# Revision: 0
# Processed by: cddbd v1.4PL0 Copyright (c) Steve Scherf et al.
# Submitted via: AltoMP3_Maker 3.0
#
DISCID=f40f2e12
DTITLE=Das Wienerlieder Ensemble - Mei' Muaterl war a Wienerin
DYEAR=1900
DGENRE=
TTITLE0='s Herz von an echten Weana
TTITLE1=Wienerwald
TTITLE2=Wien du Stadt meiner Träume
TTITLE3=Wien, Wein ,Weib
TTITLE4=Der Weana is allweil leger
TTITLE5=Der Frieden auf der Welt
TTITLE6=Was Öst'reich is
TTITLE7=O Wien, min liebes Wien
TTITLE8=Stepanie - Gavotte
TTITLE9=A alter Fiaker
TTITLE10=Du guater Himmelvater
TTITLE11=Im Linagrab'n
TTITLE12=Die gute Stund'
TTITLE13=Herrgott aus Sta
TTITLE14=A Landpartie mi'm Zeiserlwagen
TTITLE15=Secht's Leutln so war's
TTITLE16=Echte Drahrer wolln ma sein
TTITLE17=Mei Muatterl war a Wienerin
EXTD=
EXTT0=
EXTT1=
EXTT2=
EXTT3=
EXTT4=
EXTT5=
EXTT6=
EXTT7=
EXTT8=
EXTT9=
EXTT10=
EXTT11=
EXTT12=
EXTT13=
EXTT14=
EXTT15=
EXTT16=
EXTT17=
PLAYORDER=
